<svg data-v-0dd9719b="" version="1.0" xmlns="http://www.w3.org/2000/svg" xmlns:xlink="http://www.w3.org/1999/xlink" width="100%" height="100%" viewBox="0 0 340.000000 250.000000" preserveAspectRatio="xMidYMid meet" color-interpolation-filters="sRGB" style="margin: auto;"> <rect data-v-0dd9719b="" x="0" y="0" width="100%" height="100%" fill="#ffffff" fill-opacity="1" class="background"></rect> <rect data-v-0dd9719b="" x="0" y="0" width="100%" height="100%" fill="url(#watermark)" fill-opacity="1" class="watermarklayer"></rect> <g data-v-0dd9719b="" fill="#41b883" class="icon-text-wrapper icon-svg-group iconsvg" transform="translate(46.5,86.76298141479492)"><g class="iconsvg-imagesvg" transform="translate(0,0)"><g><rect fill="#41b883" fill-opacity="0" stroke-width="2" x="0" y="0" width="60" height="76.47403706441662" class="image-rect"></rect> <svg filter="url(#colors57456293)" x="0" y="0" width="60" height="76.47403706441662" filtersec="colorsf5383774429" class="image-svg-svg primary" style="overflow: visible;"><svg xmlns="http://www.w3.org/2000/svg" viewBox="-0.003151834011077881 -0.07122892141342163 74.56468200683594 95.0372085571289"><title>资源 110</title><path d="M.48 50.82C-.94 34.68.16 20.64 12.21 9.72a37.2 37.2 0 1 1 27.72 64.52c-2.28.16-4.57.29-7.19.46v20c-7.1 0-13.94.71-20.56-.19C4.82 93.54 0 86.25.07 78.36a37.48 37.48 0 0 1 24-34.28c2.26-.83 3.95-1.13 6.18.91a10.15 10.15 0 0 0 15.39-1.25 10.63 10.63 0 0 0-2.05-15.08C38.81 25 32.32 26.3 28.3 31.5a7.65 7.65 0 0 1-3.22 2.77c-9.5 2.85-17.44 8.05-24.6 16.55z" fill="#000000"></path></svg></svg> <defs><filter id="colors57456293"><feColorMatrix type="matrix" values="0 0 0 0 0.25390625  0 0 0 0 0.71875  0 0 0 0 0.51171875  0 0 0 1 0" class="icon-fecolormatrix"></feColorMatrix></filter> <filter id="colorsf5383774429"><feColorMatrix type="matrix" values="0 0 0 0 0.99609375  0 0 0 0 0.99609375  0 0 0 0 0.99609375  0 0 0 1 0" class="icon-fecolormatrix"></feColorMatrix></filter> <filter id="colorsb7041282937"><feColorMatrix type="matrix" values="0 0 0 0 0  0 0 0 0 0  0 0 0 0 0  0 0 0 1 0" class="icon-fecolormatrix"></feColorMatrix></filter></defs></g></g> <g transform="translate(67,19.79701805114746)"><g data-gra="path-name" fill-rule="" class="tp-name iconsvg-namesvg"><g transform="scale(1)"><g><path d="M3.92-36.88L0 0 5.33 0 6.78-14.12 27.54-14.12 30-36.88 3.92-36.88ZM22.86-19.35L7.29-19.35 8.64-31.71 24.17-31.71 22.86-19.35ZM33.92-36.88L30 0 35.33 0 37.44-20.45 50.65-20.45 48.49 0 53.72 0 56.43-25.68 37.99-25.68 39.2-36.88 33.92-36.88ZM59.15-25.63L56.43 0 78.94 0 80.7-5.18 62.31-5.18 62.81-10.4 81.26-10.4 82.86-25.63 59.15-25.63ZM76.93-15.18L63.32-15.18 63.87-20.4 77.49-20.4 76.93-15.18ZM82.86 0L85.58-25.63 109.3-25.63 107.34-7.49 107.04 0 102.46 0 102.36-2.56 97.04 0 82.86 0ZM90.3-20.4L88.64-5.18 97.54-5.18 102.11-7.54 103.42-20.4 90.3-20.4ZM115.38-20.45L113.22 0 123.17 0 124.92-5.18 118.99-5.18 120.65-20.45 127.39-20.45 127.94-25.68 121.21-25.68 121.86-32.26 116.63-32.26 115.93-25.68 109.85-25.68 109.3-20.45 115.38-20.45ZM127.94 0L130.6-25.63 153.97-25.63 151.21 0 127.94 0ZM135.38-20.4L133.72-5.18 146.53-5.18 148.14-20.4 135.38-20.4ZM156.73-25.63L153.97 0 159.25 0 161.41-20.4 174.22-20.4 172.01 0 177.34 0 180-25.63 156.73-25.63Z" transform="translate(0, 36.880001068115234)"></path></g> <!----> <!----> <!----> <!----> <!----> <!----> <!----></g></g> <!----></g></g><defs v-gra="od"></defs></svg>